<?xml version="1.0" standalone="no"?>
<!DOCTYPE svg PUBLIC "-//W3C//DTD SVG 20010904//EN"
 "http://www.w3.org/TR/2001/REC-SVG-20010904/DTD/svg10.dtd">
<svg version="1.0" xmlns="http://www.w3.org/2000/svg"
 width="420.000000pt" height="420.000000pt" viewBox="0 0 420.000000 420.000000"
 preserveAspectRatio="xMidYMid meet">
<metadata>
Created by potrace 1.14, written by Peter Selinger 2001-2017
</metadata>
<g transform="translate(0.000000,420.000000) scale(0.100000,-0.100000)"
fill="#000000" stroke="none">
<path d="M1941 3450 c-13 -6 -47 -10 -75 -9 -118 3 -326 -74 -411 -151 -16
-15 -47 -33 -68 -40 -50 -16 -134 -73 -175 -118 -53 -60 -85 -137 -84 -207 0
-33 7 -79 16 -102 14 -41 14 -44 -7 -70 -73 -90 -87 -321 -36 -593 6 -30 19
-84 30 -119 10 -35 19 -69 19 -77 0 -18 -15 -18 -33 0 -31 31 -76 20 -95 -22
-22 -50 -21 -94 3 -254 6 -44 33 -160 41 -182 5 -14 -5 -16 -74 -16 -73 0 -81
-2 -107 -27 l-27 -27 6 -166 c4 -91 9 -199 12 -240 3 -41 7 -113 9 -160 2 -47
7 -144 10 -216 6 -103 4 -134 -6 -145 -8 -8 -20 -26 -28 -39 -28 -48 -79 -145
-80 -153 0 -4 -8 -24 -17 -45 -8 -20 -17 -44 -19 -52 -2 -8 -8 -27 -14 -43
-10 -26 -17 -52 -26 -102 -2 -11 -7 -32 -10 -47 l-5 -28 1389 0 1389 0 -20 93
c-25 112 -75 255 -124 347 l-36 68 7 134 c4 73 8 160 10 193 2 33 6 132 10
220 4 88 9 168 10 177 4 17 7 132 6 181 -1 17 -12 38 -27 52 -24 22 -36 25
-101 25 -80 0 -76 -4 -58 57 6 23 10 40 26 118 26 132 29 210 10 268 -17 52
-39 61 -86 37 -21 -11 -41 -18 -43 -15 -3 2 1 24 7 47 6 24 13 51 16 61 2 9 6
21 9 26 3 4 8 26 11 47 5 38 11 75 21 124 3 14 8 80 11 146 7 156 -7 237 -54
305 -24 36 -35 63 -37 98 -3 44 -29 101 -45 101 -4 0 -7 26 -6 58 0 72 -22
118 -77 166 -60 50 -59 50 -97 91 -19 20 -44 41 -55 46 -23 10 -58 31 -66 39
-21 22 -193 93 -255 105 -22 5 -42 9 -45 10 -3 1 -27 5 -55 10 -27 4 -59 9
-70 12 -49 10 -302 12 -324 3z"/>
</g>
</svg>
